<?xml version="1.0" encoding="UTF-8"?>
<svg version="1.1" xmlns="http://www.w3.org/2000/svg" width="500" height="500">
<path d="M0 0 C165 0 330 0 500 0 C500 165 500 330 500 500 C335 500 170 500 0 500 C0 335 0 170 0 0 Z " fill="#C554AB" transform="translate(0,0)"/>
<path d="M0 0 C14.19 0 28.38 0 43 0 C43.33 52.14 43.66 104.28 44 158 C48.19649966 153.80350034 52.13657659 149.76388076 55.984375 145.30078125 C58.44480269 142.4922698 60.96974992 139.74538121 63.5 137 C66.53904534 133.69986653 69.56156459 130.3905024 72.5 127 C75.9067735 123.0691075 79.43002785 119.24803427 82.953125 115.421875 C85.50555143 112.64505943 88.02983288 109.85019283 90.5 107 C93.4384401 103.6094922 96.46114142 100.3003097 99.5 97 C103.12090134 93.06715159 106.68958925 89.09785988 110.19140625 85.05859375 C113.2777948 81.54557698 116.44628778 78.10700182 119.59765625 74.65234375 C121.56941844 72.47539004 123.51365337 70.28161326 125.4375 68.0625 C128.86768576 64.11332633 132.41003518 60.26977695 135.95288086 56.42211914 C138.50540453 53.6452363 141.02975746 50.85027985 143.5 48 C146.9067735 44.0691075 150.43002785 40.24803427 153.953125 36.421875 C156.50555143 33.64505943 159.02983288 30.85019283 161.5 28 C164.43844395 24.60948775 167.46129279 21.30045318 170.5 18 C177.91933199 10.37927493 177.91933199 10.37927493 184.2702179 1.92095947 C186 0 186 0 188.33488464 -0.48101807 C189.25199722 -0.47213562 190.1691098 -0.46325317 191.11401367 -0.45410156 C192.15486618 -0.45379944 193.19571869 -0.45349731 194.26811218 -0.45318604 C195.95104118 -0.42221832 195.95104118 -0.42221832 197.66796875 -0.390625 C198.81791824 -0.38496521 199.96786774 -0.37930542 201.15266418 -0.37347412 C204.8313634 -0.35105474 208.50909437 -0.3008458 212.1875 -0.25 C214.67902241 -0.2299423 217.17056006 -0.21169026 219.66210938 -0.1953125 C225.77507084 -0.15117166 231.88746626 -0.08420349 238 0 C231.74426321 8.48021748 231.74426321 8.48021748 228.59765625 11.78125 C228.02112305 12.39129883 227.44458984 13.00134766 226.85058594 13.62988281 C226.26051758 14.24702148 225.67044922 14.86416016 225.0625 15.5 C223.81811405 16.81686188 222.57461292 18.13456048 221.33203125 19.453125 C220.7488916 20.07123047 220.16575195 20.68933594 219.56494141 21.32617188 C217.21120161 23.84368202 214.95126179 26.43540297 212.703125 29.046875 C210.50634095 31.56612276 208.25310381 34.03102996 206 36.5 C202.54424587 40.28934126 199.1347711 44.11083698 195.76953125 47.98046875 C191.46130252 52.89736556 187.05313844 57.72639032 182.671875 62.578125 C178.68295423 67.00121401 174.72432093 71.44615005 170.8125 75.9375 C167.9673071 79.1751333 165.07146164 82.3668629 162.18359375 85.56640625 C160.29151315 87.67511146 158.42094242 89.79919801 156.5625 91.9375 C152.91062947 96.13164365 149.15733816 100.23094292 145.41015625 104.33984375 C142.82761116 107.19027034 140.29344897 110.07825892 137.76953125 112.98046875 C133.45042187 117.90978343 129.03253883 122.7524488 124.63671875 127.61328125 C120.35627206 132.35414574 116.13065438 137.12794612 112 142 C113.49213258 146.63255116 116.17750869 149.947979 119.25 153.625 C123.97315985 159.39687121 128.48330989 165.28487141 132.875 171.3125 C138.08897692 178.45595111 143.43506971 185.4760809 148.88793945 192.43847656 C153.17701897 197.92147318 157.37709113 203.4642118 161.54052734 209.04296875 C165.07946892 213.78180897 168.65305809 218.49254424 172.25 223.1875 C172.78391357 223.88456055 173.31782715 224.58162109 173.86791992 225.29980469 C174.98708953 226.76078233 176.10631297 228.22171873 177.22558594 229.68261719 C185.74620025 240.81053009 194.23655042 251.95954657 202.625 263.1875 C207.97870808 270.35172207 213.42337818 277.43718857 218.93310547 284.48193359 C223.2655378 290.03005555 227.51344228 295.63611897 231.71655273 301.28271484 C234.10319491 304.48568011 236.50880027 307.66926079 238.96875 310.81640625 C239.43764648 311.41735107 239.90654297 312.0182959 240.38964844 312.63745117 C241.27414361 313.7671985 242.16261159 314.89385059 243.05566406 316.0168457 C246 319.78020467 246 319.78020467 246 322 C246.66 322 247.32 322 248 322 C248 322.66 248 323.32 248 324 C240.9583362 324.3830768 233.91938444 324.64406047 226.86962891 324.82397461 C224.4770067 324.89901638 222.08506351 325.00109872 219.69482422 325.1315918 C200.38688892 326.15860963 200.38688892 326.15860963 194.75622559 322.56994629 C191.06134165 319.15760817 188.45360512 315.23109819 186.04426575 310.84391785 C184.5256138 308.16235001 182.65146561 305.79380554 180.75 303.375 C180.03457031 302.41207031 179.31914062 301.44914062 178.58203125 300.45703125 C175.23812373 295.96369787 171.83442447 291.51579501 168.4375 287.0625 C167.75075195 286.16192871 167.06400391 285.26135742 166.35644531 284.33349609 C164.94202217 282.47890656 163.52747003 280.62441539 162.11279297 278.77001953 C158.74002239 274.34808113 155.37010868 269.92396724 152 265.5 C150.66668139 263.74998878 149.33334803 261.9999888 148 260.25 C124 228.75 124 228.75 121.99926758 226.12402344 C120.66839527 224.3772637 119.3375034 222.63051886 118.0065918 220.88378906 C114.63544264 216.45933629 111.26465338 212.03461013 107.89453125 207.609375 C99.60862224 196.73017375 91.31180514 185.85943034 83 175 C79.81058851 176.51876738 77.66753164 178.08940757 75.1875 180.625 C74.56230469 181.25664062 73.93710937 181.88828125 73.29296875 182.5390625 C71.41489061 184.55471706 69.61508106 186.60283956 67.8203125 188.69140625 C63.66854809 193.46262969 59.19424159 197.87921793 54.6875 202.3125 C53.08492403 203.88957754 51.48455913 205.46890596 49.88671875 207.05078125 C49.18764404 207.73825439 48.48856934 208.42572754 47.76831055 209.1340332 C44.78103742 212.28628068 43.75068289 214.27518472 43.7215271 218.53678894 C43.71036362 219.46646988 43.69920013 220.39615082 43.68769836 221.35400391 C43.68445808 222.88069702 43.68445808 222.88069702 43.68115234 224.43823242 C43.67110672 225.51156326 43.6610611 226.5848941 43.65071106 227.69075012 C43.61977033 231.24565078 43.60281355 234.80047576 43.5859375 238.35546875 C43.56723463 240.81741492 43.54766189 243.27935462 43.5272522 245.74128723 C43.47583203 252.22675775 43.43625919 258.71224907 43.39910889 265.19781494 C43.35913117 271.81357003 43.30801044 278.42923784 43.2578125 285.04492188 C43.16093612 298.02989283 43.07759832 311.01489951 43 324 C28.81 324 14.62 324 0 324 C0 297.27 0 270.54 0 243 C-3.96 244.98 -7.92 246.96 -12 249 C-24.04531039 253.5169914 -35.52243362 255.37943525 -48.375 255.3125 C-49.46627197 255.30903564 -50.55754395 255.30557129 -51.68188477 255.30200195 C-59.84561501 255.19211609 -67.14265428 254.30971426 -75 252 C-75.8353125 251.80664062 -76.670625 251.61328125 -77.53125 251.4140625 C-94.54418354 247.16082911 -108.87633713 236.1742378 -118.04467773 221.40380859 C-127.056926 205.95483937 -128.31830006 189.5464789 -128.22705078 171.99853516 C-128.22648502 170.44969185 -128.22680643 168.90084801 -128.22793579 167.352005 C-128.22850388 163.19382738 -128.21683886 159.03576782 -128.20278788 154.87761736 C-128.19018869 150.51480253 -128.18910284 146.15198427 -128.18673706 141.78915405 C-128.18054906 133.54829892 -128.16417496 125.30749758 -128.14403808 117.06666601 C-128.1215951 107.67595928 -128.11066464 98.28524983 -128.10064721 88.89452291 C-128.07980601 69.59631202 -128.04316374 50.29817476 -128 31 C-118.43 31 -108.86 31 -99 31 C-98.98018066 35.6931543 -98.96036133 40.38630859 -98.93994141 45.22167969 C-98.87297401 60.74417707 -98.79543328 76.26660841 -98.71247292 91.78902817 C-98.66244142 101.19836568 -98.61599773 110.60769489 -98.578125 120.01708984 C-98.54508962 128.22236112 -98.50519538 136.42756614 -98.45720994 144.6327641 C-98.43205927 148.97366602 -98.41024483 153.31452464 -98.39665604 157.65547943 C-98.38373117 161.74962413 -98.36156688 165.84361945 -98.33261681 169.9376812 C-98.32362182 171.43230247 -98.31786994 172.92694774 -98.31578636 174.42159462 C-98.28977887 190.25822186 -96.94874693 205.62106327 -85.875 217.9375 C-72.05550345 230.22842921 -56.36695031 230.83253314 -38.89648438 230.1953125 C-26.04063208 229.32843102 -15.19360169 223.08804958 -6.7890625 213.5390625 C-2.35282061 207.24308601 -0.40302594 202.03521746 -0.48101807 194.33129883 C-0.47351681 193.4955023 -0.46601556 192.65970577 -0.458287 191.79858208 C-0.43810176 189.01780784 -0.44609435 186.23785613 -0.45410156 183.45703125 C-0.44536157 181.45586851 -0.4348743 179.45471275 -0.42277527 177.4535675 C-0.39494707 172.03473681 -0.39150989 166.61613451 -0.39249516 161.19724274 C-0.38936335 155.529067 -0.3637395 149.8609937 -0.34051514 144.19287109 C-0.29997227 133.46564237 -0.27961841 122.73847441 -0.26654124 112.01118088 C-0.25066544 99.79593747 -0.21224731 87.58079738 -0.17194796 75.36561394 C-0.08957233 50.24375683 -0.03844117 25.1219654 0 0 Z " fill="#FEFDFE" transform="translate(194,80)"/>
</svg>
