<?xml version="1.0" standalone="no"?>
<!DOCTYPE svg PUBLIC "-//W3C//DTD SVG 20010904//EN"
 "http://www.w3.org/TR/2001/REC-SVG-20010904/DTD/svg10.dtd">
<svg version="1.0" xmlns="http://www.w3.org/2000/svg"
 width="500.000000pt" height="500.000000pt" viewBox="0 0 500.000000 500.000000"
 preserveAspectRatio="xMidYMid meet">

<g transform="translate(0.000000,500.000000) scale(0.100000,-0.100000)"
fill="#000000" stroke="none">
<path d="M2277 3914 c-4 -4 -4 -18 -1 -30 4 -16 2 -24 -7 -24 -8 0 -6 -5 6
-14 12 -8 16 -20 13 -34 -4 -14 -2 -19 7 -16 10 4 11 14 3 41 -5 20 -8 47 -5
59 4 23 -3 31 -16 18z"/>
<path d="M2633 3868 c-1 -29 -7 -55 -15 -59 -9 -6 -7 -9 8 -9 17 0 20 5 16 25
-6 34 13 32 35 -5 9 -16 21 -30 26 -30 5 0 -1 13 -12 29 -12 16 -21 34 -21 41
0 6 -4 8 -10 5 -14 -9 -12 29 2 43 9 9 8 12 -7 12 -17 0 -20 -8 -22 -52z"/>
<path d="M2696 3894 c-6 -15 -4 -15 11 -3 10 7 20 15 22 16 2 2 -3 3 -11 3 -9
0 -19 -7 -22 -16z"/>
<path d="M2190 3880 c6 -11 11 -38 13 -60 1 -24 7 -40 15 -40 14 0 15 2 3 34
-7 17 -7 26 2 30 9 3 9 5 0 5 -7 1 -13 12 -13 26 0 16 -6 25 -15 25 -13 0 -14
-4 -5 -20z"/>
<path d="M2882 3827 c-17 -46 -15 -84 4 -91 24 -9 31 -7 12 5 -22 12 -23 38
-4 84 8 19 12 35 7 35 -4 0 -12 -15 -19 -33z"/>
<path d="M1980 3825 c-18 -22 -5 -45 28 -45 15 0 34 -6 41 -12 11 -11 13 -10
9 2 -3 8 -18 16 -34 18 -38 5 -50 17 -34 37 7 8 10 15 7 15 -2 0 -10 -7 -17
-15z"/>
<path d="M2967 3808 c-9 -31 -2 -33 11 -3 6 14 8 25 3 25 -5 0 -11 -10 -14
-22z"/>
<path d="M2941 3747 c-13 -21 -12 -21 5 -5 10 10 16 20 13 22 -3 3 -11 -5 -18
-17z"/>
<path d="M1796 3742 c-2 -4 4 -8 14 -8 10 0 16 4 14 8 -3 4 -9 8 -14 8 -5 0
-11 -4 -14 -8z"/>
<path d="M3140 3745 c-1 -6 -2 -36 -5 -67 -3 -54 -2 -57 16 -48 22 12 26 22 6
14 -11 -4 -12 5 -6 43 4 27 3 52 -2 58 -6 5 -9 5 -9 0z"/>
<path d="M1998 3728 c6 -6 18 -8 28 -6 14 3 12 5 -9 10 -19 3 -25 2 -19 -4z"/>
<path d="M1765 3722 c-7 -4 0 -26 21 -59 29 -49 32 -51 50 -38 14 11 15 14 3
9 -11 -3 -23 7 -39 33 -13 21 -23 44 -23 51 0 6 -1 12 -1 12 -1 0 -6 -4 -11
-8z"/>
<path d="M3109 3693 c-13 -16 -12 -17 4 -4 9 7 17 15 17 17 0 8 -8 3 -21 -13z"/>
<path d="M1816 3692 c-3 -5 1 -9 9 -9 8 0 12 4 9 9 -3 4 -7 8 -9 8 -2 0 -6 -4
-9 -8z"/>
<path d="M3225 3682 c-5 -4 -10 -11 -10 -17 -1 -22 -29 -64 -44 -67 -15 -3
-15 -4 0 -10 12 -4 24 8 47 48 29 50 31 64 7 46z"/>
<path d="M1866 3653 c-6 -14 -5 -15 5 -6 7 7 10 15 7 18 -3 3 -9 -2 -12 -12z"/>
<path d="M3080 3660 c-9 -6 -10 -10 -3 -10 6 0 15 5 18 10 8 12 4 12 -15 0z"/>
<path d="M1606 3601 c-2 -3 17 -24 41 -47 24 -23 45 -38 47 -35 2 3 -17 24
-41 47 -24 23 -45 38 -47 35z"/>
<path d="M3396 3514 c-4 -14 -12 -23 -19 -21 -7 2 -11 10 -9 17 2 8 -3 10 -15
5 -10 -4 -28 -10 -40 -12 -13 -3 -20 -9 -18 -14 3 -4 17 -3 30 3 19 8 28 8 40
-2 14 -11 14 -15 0 -36 -8 -13 -11 -25 -7 -28 5 -3 20 20 35 50 30 60 31 64
18 64 -5 0 -12 -12 -15 -26z"/>
<path d="M1554 3493 c20 -21 36 -44 36 -51 0 -7 5 -10 11 -6 7 4 -2 19 -22 40
-36 37 -30 42 24 19 45 -19 48 -19 41 0 -4 8 -10 13 -15 10 -4 -3 -25 1 -45
10 -60 25 -68 18 -30 -22z"/>
<path d="M1406 3382 c-2 -4 7 -13 21 -19 25 -12 25 -12 8 7 -20 22 -22 23 -29
12z"/>
<path d="M3517 3339 c-21 -15 -44 -30 -50 -32 -7 -2 -9 -8 -5 -12 5 -5 16 -1
26 8 10 10 22 14 25 10 4 -3 7 -1 7 5 0 6 12 18 26 25 15 8 23 16 18 19 -5 3
-26 -7 -47 -23z"/>
<path d="M1471 3333 c7 -12 15 -20 18 -17 3 2 -3 12 -13 22 -17 16 -18 16 -5
-5z"/>
<path d="M1362 3308 c3 -7 24 -22 48 -35 41 -22 45 -22 62 -6 10 9 18 21 18
27 0 6 -5 3 -11 -6 -14 -25 -40 -22 -84 7 -20 14 -35 20 -33 13z"/>
<path d="M3570 3305 c-7 -9 -20 -13 -30 -10 -17 5 -41 -31 -39 -58 0 -7 7 1
14 18 7 16 19 30 26 31 32 2 37 5 43 19 7 19 2 19 -14 0z"/>
<path d="M2330 2853 c0 -347 -7 -423 -42 -461 -74 -80 -240 -64 -293 28 -19
33 -20 56 -23 323 l-4 287 -44 0 -44 0 0 -276 c0 -169 4 -292 11 -319 15 -61
77 -129 137 -152 68 -26 192 -24 255 4 l47 22 0 -140 0 -139 70 0 70 0 0 193
0 193 73 72 72 72 199 -261 c109 -143 204 -263 211 -265 6 -3 46 -4 88 -2 l77
3 -239 315 -239 314 31 36 c17 19 114 129 216 243 102 115 188 213 189 218 2
5 -33 9 -80 9 l-83 0 -249 -277 c-137 -153 -253 -279 -258 -281 -4 -2 -8 123
-8 277 l0 281 -70 0 -70 0 0 -317z"/>
<path d="M1347 2930 c-31 -106 -41 -186 -41 -325 0 -249 60 -447 199 -662 58
-88 189 -233 211 -233 8 0 -20 35 -62 77 -167 170 -277 389 -320 637 -22 121
-14 336 16 455 23 95 21 135 -3 51z"/>
<path d="M3631 2973 c-1 -6 8 -49 20 -95 29 -118 36 -333 15 -454 -43 -249
-153 -468 -321 -636 -43 -43 -70 -78 -62 -78 8 0 44 31 79 69 163 172 264 366
314 603 24 113 24 332 0 452 -16 83 -43 166 -45 139z"/>
<path d="M2614 1676 c-3 -13 -4 -37 -1 -52 3 -22 4 -19 6 13 0 23 6 45 12 48
13 8 45 -20 70 -60 11 -16 19 -24 19 -17 0 10 9 12 33 8 30 -5 30 -5 -5 7 -20
7 -52 27 -70 45 -40 38 -56 40 -64 8z"/>
<path d="M2047 1643 c-4 -3 -7 -16 -6 -27 0 -20 1 -20 9 2 12 28 29 28 66 1
l29 -21 -28 26 c-27 25 -56 33 -70 19z"/>
<path d="M2485 1591 c36 -22 61 -49 91 -99 13 -20 24 -34 24 -29 1 30 -105
147 -133 147 -7 0 2 -8 18 -19z"/>
<path d="M2790 1606 c0 -2 7 -7 16 -10 8 -3 12 -2 9 4 -6 10 -25 14 -25 6z"/>
<path d="M2620 1584 c0 -6 7 -19 16 -30 14 -18 14 -18 3 6 -14 31 -19 36 -19
24z"/>
<path d="M2688 1551 c15 -21 28 -37 30 -36 5 5 -42 75 -50 75 -4 0 5 -18 20
-39z"/>
<path d="M2728 1570 c2 -8 6 -33 9 -55 4 -31 2 -37 -7 -25 -9 12 -10 11 -5 -7
9 -33 -9 -28 -42 10 -15 18 -24 26 -19 17 6 -8 21 -27 35 -42 13 -15 22 -31
18 -34 -4 -4 -29 -9 -57 -12 -44 -4 -50 -2 -50 14 0 14 -2 16 -9 6 -6 -10 -16
-3 -41 27 -17 23 -41 46 -52 52 -11 6 -1 -8 21 -30 79 -79 40 -89 -43 -12 -37
34 -38 35 -17 5 12 -16 35 -38 52 -48 16 -9 27 -22 24 -27 -4 -5 15 -9 42 -9
l48 0 -29 -19 c-29 -19 -66 -68 -66 -86 0 -5 10 6 22 26 17 31 80 79 102 79
15 0 3 -23 -41 -77 -26 -32 -38 -51 -28 -43 10 8 36 37 57 63 l38 49 2 -34 c1
-28 2 -27 7 12 5 40 10 46 40 56 20 7 29 14 22 18 -6 4 -11 23 -11 43 0 30 3
34 18 28 42 -18 53 -15 16 4 -22 12 -45 31 -50 44 -6 12 -8 15 -6 7z"/>
<path d="M2854 1561 c17 -17 26 -31 22 -31 -5 0 -3 -7 4 -15 11 -13 8 -15 -21
-16 -24 -1 -27 -3 -11 -6 35 -7 26 -19 -23 -33 -25 -7 -43 -15 -41 -17 3 -3
21 0 42 7 30 10 38 10 45 -1 6 -10 9 -11 9 -1 0 6 7 12 15 12 10 0 15 -11 16
-32 l1 -33 8 30 7 30 10 -35 c6 -19 12 -27 12 -17 1 10 -6 32 -15 50 -9 17
-13 32 -8 34 14 5 108 73 101 73 -3 0 -28 -13 -54 -30 l-47 -30 -29 35 c-16
19 -38 40 -50 46 -18 9 -16 5 7 -20z"/>
<path d="M2189 1527 c31 -72 26 -81 -21 -33 -33 32 -35 33 -9 4 19 -21 32 -40
29 -44 -11 -10 -45 14 -83 58 -21 24 -33 34 -27 22 6 -11 29 -37 52 -57 41
-37 34 -51 -9 -20 -14 9 -21 11 -17 5 5 -9 -7 -12 -41 -13 -42 -1 -44 -2 -18
-9 l30 -7 -25 -12 c-23 -10 -22 -10 10 -4 19 5 66 7 103 6 64 -2 68 -1 62 17
-8 24 -3 25 36 4 17 -8 33 -13 35 -11 3 2 -9 10 -26 17 -33 13 -70 54 -70 76
0 7 10 15 23 17 20 4 20 4 -3 6 -15 0 -32 7 -39 14 -7 6 -3 -10 8 -36z"/>
<path d="M2810 1550 c8 -5 20 -10 25 -10 6 0 3 5 -5 10 -8 5 -19 10 -25 10 -5
0 -3 -5 5 -10z"/>
<path d="M2258 1533 c7 -3 16 -2 19 1 4 3 -2 6 -13 5 -11 0 -14 -3 -6 -6z"/>
<path d="M1913 1503 c-7 -2 -13 -11 -13 -18 0 -15 46 -55 64 -55 6 0 -4 9 -22
20 -66 40 -5 64 90 36 29 -8 54 -13 56 -11 2 2 -20 11 -49 19 -52 16 -102 19
-126 9z"/>
<path d="M2330 1507 c0 -2 18 -17 41 -31 46 -31 47 -46 0 -22 -16 9 -34 16
-38 16 -4 -1 9 -10 30 -21 20 -11 37 -22 37 -26 0 -3 -21 -3 -47 1 -33 4 -43
3 -33 -4 12 -8 11 -10 -8 -10 -13 0 -20 -4 -17 -10 3 -5 2 -10 -4 -10 -6 0 -8
-6 -5 -13 3 -8 -9 -21 -30 -32 -19 -11 -33 -21 -31 -23 2 -2 24 8 49 23 60 35
59 18 -1 -36 -27 -23 -38 -37 -26 -31 30 16 81 69 88 92 5 17 15 20 71 20 40
0 63 -4 59 -10 -3 -6 1 -7 10 -4 13 5 15 1 10 -22 -5 -26 -4 -26 4 -6 18 39
24 24 19 -50 -4 -52 -3 -66 4 -48 5 14 8 51 6 83 -2 32 1 59 7 61 6 3 -8 5
-31 5 -34 1 -45 7 -71 39 -26 32 -93 82 -93 69z"/>
<path d="M1988 1423 c7 -3 16 -2 19 1 4 3 -2 6 -13 5 -11 0 -14 -3 -6 -6z"/>
<path d="M2248 1413 c7 -3 16 -2 19 1 4 3 -2 6 -13 5 -11 0 -14 -3 -6 -6z"/>
<path d="M2851 1384 c0 -11 3 -14 6 -6 3 7 2 16 -1 19 -3 4 -6 -2 -5 -13z"/>
<path d="M2205 1361 c-22 -10 -53 -34 -70 -52 l-30 -34 35 32 c19 17 55 41 80
52 25 11 41 20 35 20 -5 0 -28 -8 -50 -18z"/>
<path d="M2901 1364 c0 -11 3 -14 6 -6 3 7 2 16 -1 19 -3 4 -6 -2 -5 -13z"/>
<path d="M2952 1350 c0 -19 2 -27 5 -17 2 9 2 25 0 35 -3 9 -5 1 -5 -18z"/>
<path d="M2842 1325 c0 -16 2 -22 5 -12 2 9 2 23 0 30 -3 6 -5 -1 -5 -18z"/>
<path d="M2466 1294 c-4 -14 -5 -28 -3 -31 3 -2 8 8 11 23 4 14 5 28 3 31 -3
2 -8 -8 -11 -23z"/>
<path d="M2680 1312 c0 -6 -16 -32 -37 -59 -20 -26 -26 -39 -14 -29 28 25 65
85 57 93 -3 4 -6 1 -6 -5z"/>
<path d="M2941 1294 c0 -11 3 -14 6 -6 3 7 2 16 -1 19 -3 4 -6 -2 -5 -13z"/>
<path d="M2110 1260 c8 -5 28 -10 44 -10 39 0 30 6 -19 13 -27 4 -35 3 -25 -3z"/>
<path d="M2413 1230 c0 -25 2 -35 4 -22 2 12 2 32 0 45 -2 12 -4 2 -4 -23z"/>
<path d="M2926 1253 c-6 -14 -5 -15 5 -6 7 7 10 15 7 18 -3 3 -9 -2 -12 -12z"/>
<path d="M2875 1238 c18 -30 30 -35 40 -18 3 6 1 10 -6 10 -7 0 -21 8 -32 18
-20 17 -20 17 -2 -10z"/>
<path d="M2486 1193 c-8 -36 -30 -58 -47 -47 -8 4 -9 3 -5 -4 13 -22 34 -12
51 23 9 20 14 41 12 48 -2 7 -7 -2 -11 -20z"/>
<path d="M2530 1198 c0 -20 18 -23 40 -7 12 9 12 10 -4 5 -11 -4 -23 -1 -28 6
-6 10 -8 8 -8 -4z"/>
</g>
</svg>
